<svg width="512" height="512" viewBox="0 0 512 512" fill="none" xmlns="http://www.w3.org/2000/svg">
<path d="M247.678 142.353C263.826 141.84 277.724 142.707 293.355 147.871C322.983 157.861 347.4 179.263 361.184 207.328C367.026 219.224 370.697 232.068 372.023 245.255C372.995 254.955 372.746 266.061 372.758 275.929L372.809 322.064C373.089 351.955 373.163 381.847 373.033 411.739C373.014 420.46 374.035 452.154 372.054 458.091C370.315 459.672 371.277 459.327 369.23 459.523C362.242 456.791 330.282 425.094 323.189 417.715C322.382 387.14 323.619 355.25 323.108 324.6C322.89 311.485 324.042 289.498 321.766 277.125C320.041 267.677 316.201 258.742 310.534 250.988C298.028 234.026 282.558 226.944 262.341 223.952C260.295 223.856 258.183 223.759 256.137 223.771C237.847 223.769 220.311 231.06 207.413 244.027C183.176 268.662 188.33 298.268 188.306 330.023L188.584 417.617C177.046 429.995 162.502 442.383 150.441 454.44C148.356 456.524 144.529 459.759 141.487 459.663C139.147 457.544 139.333 453.623 139.318 450.538C139.276 441.311 139.297 432.079 139.3 422.852L139.197 362.722L139.04 285.447C139.042 273.223 138.591 248.601 140.736 237.529C144.398 217.683 153.137 199.124 166.106 183.661C187.49 157.895 214.797 145.369 247.678 142.353Z" fill="white"/>
<path d="M253.312 175.378C257.19 174.459 261.273 175.415 264.34 177.958C267.407 180.502 269.101 184.338 268.915 188.318C268.651 193.978 264.666 198.777 259.15 200.078C252.331 201.685 245.5 197.463 243.888 190.645C242.277 183.827 246.496 176.993 253.312 175.378Z" fill="#111111"/>
<path d="M245.247 52.3859C250.724 52.0499 256.213 51.9334 261.7 52.0361C318.219 53.5033 367.817 76.9835 406.575 117.873C436.387 149.846 455.092 190.583 459.909 234.033C461.501 249.537 461.029 267.67 461.029 283.345C461.029 299.411 461.196 316.213 460.765 332.242C458.624 330.822 456.033 328.614 453.98 326.967C453.401 319.961 453.824 309.778 453.747 302.51C453.565 285.57 454.02 268.392 453.676 251.456C452.39 204.023 434.024 158.649 401.958 123.675C368.772 86.9724 317.357 61.9049 267.842 59.4888C263.419 58.9208 256.179 58.87 251.558 59.0282C197.651 60.8752 149.122 82.715 112.071 121.483C82.4912 152.42 63.9264 192.241 59.2465 234.788C57.7101 249.215 58.0818 265.662 58.0344 280.364C57.8959 295.857 57.9432 311.351 58.1776 326.842C55.7026 328.986 53.6824 330.026 50.8772 331.633L50.8542 276.916C50.8415 260.295 50.509 243.24 52.7727 226.734C65.7157 132.34 149.903 55.7313 245.247 52.3859Z" fill="white"/>
<path d="M91.3829 331.108C103.21 330.803 112.133 333.821 121.385 341.344C123.77 343.283 126.151 348.709 122.623 350.748C117.086 350.422 113.952 344.619 109.038 342.003C106.793 340.807 104.78 340.097 102.366 339.4C94.3762 337.078 85.7818 338.166 78.6223 342.405C68.8989 348.039 64.7131 356.174 62.0176 366.649C71.9073 370.198 78.1628 375.422 84.4242 383.62C100.586 378.651 113.1 380.665 123.262 395.836C125.138 398.638 124.637 401.882 121.562 403.513C115.723 402.52 113.442 391.711 104.774 389.077C95.5156 386.265 91.0019 389.703 82.7862 393.435C80.5386 391.028 78.6108 388.331 76.4521 385.875C45.3656 350.53 -6.76868 384.788 11.0296 428.278C11.3655 428.981 11.7222 429.675 12.0962 430.359C16.2947 437.983 22.787 444.13 31.0328 447.129C39.596 450.242 93.971 448.813 106.826 448.686C110.816 448.647 118.896 447.442 122.409 448.996C123.975 449.688 124.08 449.969 124.676 451.462C124.281 453.298 124.421 453.298 123.184 454.659C121.335 455.356 119.384 455.777 117.395 455.758C91.9266 455.15 65.7878 456.319 40.4087 455.762C-1.48508 454.84 -12.9389 400.126 16.1666 374.95C28.5128 364.271 39.1643 363.678 54.5592 364.712C60.6982 345.278 70.193 333.485 91.3829 331.108Z" fill="white"/>
<path d="M415.85 331.148C438.498 331.684 451.594 342.767 456.754 364.691C473.385 362.884 487.982 365.992 499.517 378.778C508.187 388.434 512.651 401.147 511.923 414.103C511.224 425.938 506.086 438.614 496.998 446.493C492.27 450.585 486.596 453.435 480.488 454.782C473.766 456.206 463.383 455.821 456.235 455.784L425.702 455.669C414.587 455.682 403.066 455.966 391.981 455.718C389.625 455.664 388.966 455.08 387.715 453.56C387.296 451.22 387.21 452.333 387.971 450.089C390.819 447.427 442.745 449.09 450.639 448.73C472.534 447.729 483.999 453.471 498.743 432.834C509.614 416.063 504.86 392.232 489.624 379.794C481.979 373.454 472.089 370.492 462.217 371.585C444.934 373.374 438.841 381.364 429.174 393.352C425.589 391.887 421.536 389.016 417.596 388.199C401.363 384.83 396.585 402.047 390.852 403.538C388.793 403.034 389.687 403.52 388.147 401.899C386.325 394.871 396.714 386.038 402.292 383.408C410.903 379.348 419.07 381.027 427.622 384.091C434.39 374.733 439.396 371.479 449.956 366.777C444.125 343.771 425.349 330.761 401.872 342.389C396.885 344.859 395.904 350.755 388.587 351.099C387.971 350.677 387.306 350.512 387.371 349.732C388.449 336.727 405.509 332.135 415.85 331.148Z" fill="white"/>
</svg>
