<svg width="148" height="148" viewBox="0 0 148 148" fill="none" xmlns="http://www.w3.org/2000/svg">
<path d="M51.3067 0H49.3333C48.2435 0 47.36 0.883491 47.36 1.97333V3.94667C47.36 5.03651 48.2435 5.92 49.3333 5.92H51.3067C52.3965 5.92 53.28 5.03651 53.28 3.94667V1.97333C53.28 0.883491 52.3965 0 51.3067 0Z" fill="white"/>
<path d="M63.1467 0H61.1733C60.0835 0 59.2 0.883491 59.2 1.97333V3.94667C59.2 5.03651 60.0835 5.92 61.1733 5.92H63.1467C64.2365 5.92 65.12 5.03651 65.12 3.94667V1.97333C65.12 0.883491 64.2365 0 63.1467 0Z" fill="white"/>
<path d="M92.7467 0H90.7733C89.6835 0 88.8 0.883491 88.8 1.97333V3.94667C88.8 5.03651 89.6835 5.92 90.7733 5.92H92.7467C93.8365 5.92 94.72 5.03651 94.72 3.94667V1.97333C94.72 0.883491 93.8365 0 92.7467 0Z" fill="white"/>
<path d="M98.6666 0H96.6933C95.6035 0 94.72 0.883491 94.72 1.97333V3.94667C94.72 5.03651 95.6035 5.92 96.6933 5.92H98.6666C99.7565 5.92 100.64 5.03651 100.64 3.94667V1.97333C100.64 0.883491 99.7565 0 98.6666 0Z" fill="white"/>
<path d="M51.3067 5.9198H49.3333C48.2435 5.9198 47.36 6.80329 47.36 7.89313V9.86647C47.36 10.9563 48.2435 11.8398 49.3333 11.8398H51.3067C52.3965 11.8398 53.28 10.9563 53.28 9.86647V7.89313C53.28 6.80329 52.3965 5.9198 51.3067 5.9198Z" fill="white"/>
<path d="M57.2267 5.9198H55.2534C54.1635 5.9198 53.28 6.80329 53.28 7.89313V9.86647C53.28 10.9563 54.1635 11.8398 55.2534 11.8398H57.2267C58.3165 11.8398 59.2 10.9563 59.2 9.86647V7.89313C59.2 6.80329 58.3165 5.9198 57.2267 5.9198Z" fill="white"/>
<path d="M74.9866 5.9198H73.0133C71.9235 5.9198 71.04 6.80329 71.04 7.89313V9.86647C71.04 10.9563 71.9235 11.8398 73.0133 11.8398H74.9866C76.0765 11.8398 76.96 10.9563 76.96 9.86647V7.89313C76.96 6.80329 76.0765 5.9198 74.9866 5.9198Z" fill="white"/>
<path d="M80.9067 5.9198H78.9334C77.8435 5.9198 76.96 6.80329 76.96 7.89313V9.86647C76.96 10.9563 77.8435 11.8398 78.9334 11.8398H80.9067C81.9965 11.8398 82.88 10.9563 82.88 9.86647V7.89313C82.88 6.80329 81.9965 5.9198 80.9067 5.9198Z" fill="white"/>
<path d="M98.6666 5.9198H96.6933C95.6035 5.9198 94.72 6.80329 94.72 7.89313V9.86647C94.72 10.9563 95.6035 11.8398 96.6933 11.8398H98.6666C99.7565 11.8398 100.64 10.9563 100.64 9.86647V7.89313C100.64 6.80329 99.7565 5.9198 98.6666 5.9198Z" fill="white"/>
<path d="M57.2267 11.8398H55.2534C54.1635 11.8398 53.28 12.7233 53.28 13.8132V15.7865C53.28 16.8764 54.1635 17.7598 55.2534 17.7598H57.2267C58.3165 17.7598 59.2 16.8764 59.2 15.7865V13.8132C59.2 12.7233 58.3165 11.8398 57.2267 11.8398Z" fill="white"/>
<path d="M74.9866 11.8398H73.0133C71.9235 11.8398 71.04 12.7233 71.04 13.8132V15.7865C71.04 16.8764 71.9235 17.7598 73.0133 17.7598H74.9866C76.0765 17.7598 76.96 16.8764 76.96 15.7865V13.8132C76.96 12.7233 76.0765 11.8398 74.9866 11.8398Z" fill="white"/>
<path d="M80.9067 11.8398H78.9334C77.8435 11.8398 76.96 12.7233 76.96 13.8132V15.7865C76.96 16.8764 77.8435 17.7598 78.9334 17.7598H80.9067C81.9965 17.7598 82.88 16.8764 82.88 15.7865V13.8132C82.88 12.7233 81.9965 11.8398 80.9067 11.8398Z" fill="white"/>
<path d="M86.8267 11.8398H84.8534C83.7636 11.8398 82.8801 12.7233 82.8801 13.8132V15.7865C82.8801 16.8764 83.7636 17.7598 84.8534 17.7598H86.8267C87.9166 17.7598 88.8001 16.8764 88.8001 15.7865V13.8132C88.8001 12.7233 87.9166 11.8398 86.8267 11.8398Z" fill="white"/>
<path d="M92.7467 11.8398H90.7733C89.6835 11.8398 88.8 12.7233 88.8 13.8132V15.7865C88.8 16.8764 89.6835 17.7598 90.7733 17.7598H92.7467C93.8365 17.7598 94.72 16.8764 94.72 15.7865V13.8132C94.72 12.7233 93.8365 11.8398 92.7467 11.8398Z" fill="white"/>
<path d="M51.3067 17.7599H49.3333C48.2435 17.7599 47.36 18.6434 47.36 19.7332V21.7066C47.36 22.7964 48.2435 23.6799 49.3333 23.6799H51.3067C52.3965 23.6799 53.28 22.7964 53.28 21.7066V19.7332C53.28 18.6434 52.3965 17.7599 51.3067 17.7599Z" fill="white"/>
<path d="M69.0667 17.7599H67.0933C66.0035 17.7599 65.12 18.6434 65.12 19.7332V21.7066C65.12 22.7964 66.0035 23.6799 67.0933 23.6799H69.0667C70.1565 23.6799 71.04 22.7964 71.04 21.7066V19.7332C71.04 18.6434 70.1565 17.7599 69.0667 17.7599Z" fill="white"/>
<path d="M86.8267 17.7599H84.8534C83.7636 17.7599 82.8801 18.6434 82.8801 19.7332V21.7066C82.8801 22.7964 83.7636 23.6799 84.8534 23.6799H86.8267C87.9166 23.6799 88.8001 22.7964 88.8001 21.7066V19.7332C88.8001 18.6434 87.9166 17.7599 86.8267 17.7599Z" fill="white"/>
<path d="M92.7467 17.7599H90.7733C89.6835 17.7599 88.8 18.6434 88.8 19.7332V21.7066C88.8 22.7964 89.6835 23.6799 90.7733 23.6799H92.7467C93.8365 23.6799 94.72 22.7964 94.72 21.7066V19.7332C94.72 18.6434 93.8365 17.7599 92.7467 17.7599Z" fill="white"/>
<path d="M98.6666 17.7599H96.6933C95.6035 17.7599 94.72 18.6434 94.72 19.7332V21.7066C94.72 22.7964 95.6035 23.6799 96.6933 23.6799H98.6666C99.7565 23.6799 100.64 22.7964 100.64 21.7066V19.7332C100.64 18.6434 99.7565 17.7599 98.6666 17.7599Z" fill="white"/>
<path d="M63.1467 23.6799H61.1733C60.0835 23.6799 59.2 24.5634 59.2 25.6533V27.6266C59.2 28.7164 60.0835 29.5999 61.1733 29.5999H63.1467C64.2365 29.5999 65.12 28.7164 65.12 27.6266V25.6533C65.12 24.5634 64.2365 23.6799 63.1467 23.6799Z" fill="white"/>
<path d="M69.0667 23.6799H67.0933C66.0035 23.6799 65.12 24.5634 65.12 25.6533V27.6266C65.12 28.7164 66.0035 29.5999 67.0933 29.5999H69.0667C70.1565 29.5999 71.04 28.7164 71.04 27.6266V25.6533C71.04 24.5634 70.1565 23.6799 69.0667 23.6799Z" fill="white"/>
<path d="M92.7467 23.6799H90.7733C89.6835 23.6799 88.8 24.5634 88.8 25.6533V27.6266C88.8 28.7164 89.6835 29.5999 90.7733 29.5999H92.7467C93.8365 29.5999 94.72 28.7164 94.72 27.6266V25.6533C94.72 24.5634 93.8365 23.6799 92.7467 23.6799Z" fill="white"/>
<path d="M63.1467 29.6H61.1733C60.0835 29.6 59.2 30.4835 59.2 31.5733V33.5466C59.2 34.6365 60.0835 35.52 61.1733 35.52H63.1467C64.2365 35.52 65.12 34.6365 65.12 33.5466V31.5733C65.12 30.4835 64.2365 29.6 63.1467 29.6Z" fill="white"/>
<path d="M74.9866 29.6H73.0133C71.9235 29.6 71.04 30.4835 71.04 31.5733V33.5466C71.04 34.6365 71.9235 35.52 73.0133 35.52H74.9866C76.0765 35.52 76.96 34.6365 76.96 33.5466V31.5733C76.96 30.4835 76.0765 29.6 74.9866 29.6Z" fill="white"/>
<path d="M86.8267 29.6H84.8534C83.7636 29.6 82.8801 30.4835 82.8801 31.5733V33.5466C82.8801 34.6365 83.7636 35.52 84.8534 35.52H86.8267C87.9166 35.52 88.8001 34.6365 88.8001 33.5466V31.5733C88.8001 30.4835 87.9166 29.6 86.8267 29.6Z" fill="white"/>
<path d="M51.3067 35.52H49.3333C48.2435 35.52 47.36 36.4035 47.36 37.4934V39.4667C47.36 40.5565 48.2435 41.44 49.3333 41.44H51.3067C52.3965 41.44 53.28 40.5565 53.28 39.4667V37.4934C53.28 36.4035 52.3965 35.52 51.3067 35.52Z" fill="white"/>
<path d="M63.1467 35.52H61.1733C60.0835 35.52 59.2 36.4035 59.2 37.4934V39.4667C59.2 40.5565 60.0835 41.44 61.1733 41.44H63.1467C64.2365 41.44 65.12 40.5565 65.12 39.4667V37.4934C65.12 36.4035 64.2365 35.52 63.1467 35.52Z" fill="white"/>
<path d="M74.9866 35.52H73.0133C71.9235 35.52 71.04 36.4035 71.04 37.4934V39.4667C71.04 40.5565 71.9235 41.44 73.0133 41.44H74.9866C76.0765 41.44 76.96 40.5565 76.96 39.4667V37.4934C76.96 36.4035 76.0765 35.52 74.9866 35.52Z" fill="white"/>
<path d="M86.8267 35.52H84.8534C83.7636 35.52 82.8801 36.4035 82.8801 37.4934V39.4667C82.8801 40.5565 83.7636 41.44 84.8534 41.44H86.8267C87.9166 41.44 88.8001 40.5565 88.8001 39.4667V37.4934C88.8001 36.4035 87.9166 35.52 86.8267 35.52Z" fill="white"/>
<path d="M98.6666 35.52H96.6933C95.6035 35.52 94.72 36.4035 94.72 37.4934V39.4667C94.72 40.5565 95.6035 41.44 96.6933 41.44H98.6666C99.7565 41.44 100.64 40.5565 100.64 39.4667V37.4934C100.64 36.4035 99.7565 35.52 98.6666 35.52Z" fill="white"/>
<path d="M51.3067 41.4399H49.3333C48.2435 41.4399 47.36 42.3234 47.36 43.4133V45.3866C47.36 46.4764 48.2435 47.3599 49.3333 47.3599H51.3067C52.3965 47.3599 53.28 46.4764 53.28 45.3866V43.4133C53.28 42.3234 52.3965 41.4399 51.3067 41.4399Z" fill="white"/>
<path d="M86.8267 41.4399H84.8534C83.7636 41.4399 82.8801 42.3234 82.8801 43.4133V45.3866C82.8801 46.4764 83.7636 47.3599 84.8534 47.3599H86.8267C87.9166 47.3599 88.8001 46.4764 88.8001 45.3866V43.4133C88.8001 42.3234 87.9166 41.4399 86.8267 41.4399Z" fill="white"/>
<path d="M92.7467 41.4399H90.7733C89.6835 41.4399 88.8 42.3234 88.8 43.4133V45.3866C88.8 46.4764 89.6835 47.3599 90.7733 47.3599H92.7467C93.8365 47.3599 94.72 46.4764 94.72 45.3866V43.4133C94.72 42.3234 93.8365 41.4399 92.7467 41.4399Z" fill="white"/>
<path d="M98.6666 41.4399H96.6933C95.6035 41.4399 94.72 42.3234 94.72 43.4133V45.3866C94.72 46.4764 95.6035 47.3599 96.6933 47.3599H98.6666C99.7565 47.3599 100.64 46.4764 100.64 45.3866V43.4133C100.64 42.3234 99.7565 41.4399 98.6666 41.4399Z" fill="white"/>
<path d="M3.94667 47.36H1.97333C0.883491 47.36 0 48.2435 0 49.3333V51.3067C0 52.3965 0.883491 53.28 1.97333 53.28H3.94667C5.03651 53.28 5.92 52.3965 5.92 51.3067V49.3333C5.92 48.2435 5.03651 47.36 3.94667 47.36Z" fill="white"/>
<path d="M15.7867 47.36H13.8134C12.7235 47.36 11.84 48.2435 11.84 49.3333V51.3067C11.84 52.3965 12.7235 53.28 13.8134 53.28H15.7867C16.8765 53.28 17.76 52.3965 17.76 51.3067V49.3333C17.76 48.2435 16.8765 47.36 15.7867 47.36Z" fill="white"/>
<path d="M21.7067 47.36H19.7333C18.6435 47.36 17.76 48.2435 17.76 49.3333V51.3067C17.76 52.3965 18.6435 53.28 19.7333 53.28H21.7067C22.7965 53.28 23.68 52.3965 23.68 51.3067V49.3333C23.68 48.2435 22.7965 47.36 21.7067 47.36Z" fill="white"/>
<path d="M33.5467 47.36H31.5734C30.4835 47.36 29.6 48.2435 29.6 49.3333V51.3067C29.6 52.3965 30.4835 53.28 31.5734 53.28H33.5467C34.6365 53.28 35.52 52.3965 35.52 51.3067V49.3333C35.52 48.2435 34.6365 47.36 33.5467 47.36Z" fill="white"/>
<path d="M39.4667 47.36H37.4934C36.4035 47.36 35.52 48.2435 35.52 49.3333V51.3067C35.52 52.3965 36.4035 53.28 37.4934 53.28H39.4667C40.5565 53.28 41.44 52.3965 41.44 51.3067V49.3333C41.44 48.2435 40.5565 47.36 39.4667 47.36Z" fill="white"/>
<path d="M45.3867 47.36H43.4133C42.3235 47.36 41.44 48.2435 41.44 49.3333V51.3067C41.44 52.3965 42.3235 53.28 43.4133 53.28H45.3867C46.4765 53.28 47.36 52.3965 47.36 51.3067V49.3333C47.36 48.2435 46.4765 47.36 45.3867 47.36Z" fill="white"/>
<path d="M57.2267 47.36H55.2534C54.1635 47.36 53.28 48.2435 53.28 49.3333V51.3067C53.28 52.3965 54.1635 53.28 55.2534 53.28H57.2267C58.3165 53.28 59.2 52.3965 59.2 51.3067V49.3333C59.2 48.2435 58.3165 47.36 57.2267 47.36Z" fill="white"/>
<path d="M63.1467 47.36H61.1733C60.0835 47.36 59.2 48.2435 59.2 49.3333V51.3067C59.2 52.3965 60.0835 53.28 61.1733 53.28H63.1467C64.2365 53.28 65.12 52.3965 65.12 51.3067V49.3333C65.12 48.2435 64.2365 47.36 63.1467 47.36Z" fill="white"/>
<path d="M69.0667 47.36H67.0933C66.0035 47.36 65.12 48.2435 65.12 49.3333V51.3067C65.12 52.3965 66.0035 53.28 67.0933 53.28H69.0667C70.1565 53.28 71.04 52.3965 71.04 51.3067V49.3333C71.04 48.2435 70.1565 47.36 69.0667 47.36Z" fill="white"/>
<path d="M74.9866 47.36H73.0133C71.9235 47.36 71.04 48.2435 71.04 49.3333V51.3067C71.04 52.3965 71.9235 53.28 73.0133 53.28H74.9866C76.0765 53.28 76.96 52.3965 76.96 51.3067V49.3333C76.96 48.2435 76.0765 47.36 74.9866 47.36Z" fill="white"/>
<path d="M80.9067 47.36H78.9334C77.8435 47.36 76.96 48.2435 76.96 49.3333V51.3067C76.96 52.3965 77.8435 53.28 78.9334 53.28H80.9067C81.9965 53.28 82.88 52.3965 82.88 51.3067V49.3333C82.88 48.2435 81.9965 47.36 80.9067 47.36Z" fill="white"/>
<path d="M86.8267 47.36H84.8534C83.7636 47.36 82.8801 48.2435 82.8801 49.3333V51.3067C82.8801 52.3965 83.7636 53.28 84.8534 53.28H86.8267C87.9166 53.28 88.8001 52.3965 88.8001 51.3067V49.3333C88.8001 48.2435 87.9166 47.36 86.8267 47.36Z" fill="white"/>
<path d="M98.6666 47.36H96.6933C95.6035 47.36 94.72 48.2435 94.72 49.3333V51.3067C94.72 52.3965 95.6035 53.28 96.6933 53.28H98.6666C99.7565 53.28 100.64 52.3965 100.64 51.3067V49.3333C100.64 48.2435 99.7565 47.36 98.6666 47.36Z" fill="white"/>
<path d="M110.507 47.36H108.533C107.444 47.36 106.56 48.2435 106.56 49.3333V51.3067C106.56 52.3965 107.444 53.28 108.533 53.28H110.507C111.597 53.28 112.48 52.3965 112.48 51.3067V49.3333C112.48 48.2435 111.597 47.36 110.507 47.36Z" fill="white"/>
<path d="M128.267 47.36H126.293C125.203 47.36 124.32 48.2435 124.32 49.3333V51.3067C124.32 52.3965 125.203 53.28 126.293 53.28H128.267C129.357 53.28 130.24 52.3965 130.24 51.3067V49.3333C130.24 48.2435 129.357 47.36 128.267 47.36Z" fill="white"/>
<path d="M140.107 47.36H138.133C137.044 47.36 136.16 48.2435 136.16 49.3333V51.3067C136.16 52.3965 137.044 53.28 138.133 53.28H140.107C141.197 53.28 142.08 52.3965 142.08 51.3067V49.3333C142.08 48.2435 141.197 47.36 140.107 47.36Z" fill="white"/>
<path d="M146.027 47.36H144.053C142.964 47.36 142.08 48.2435 142.08 49.3333V51.3067C142.08 52.3965 142.964 53.28 144.053 53.28H146.027C147.117 53.28 148 52.3965 148 51.3067V49.3333C148 48.2435 147.117 47.36 146.027 47.36Z" fill="white"/>
<path d="M3.94667 53.2799H1.97333C0.883491 53.2799 0 54.1634 0 55.2532V57.2266C0 58.3164 0.883491 59.1999 1.97333 59.1999H3.94667C5.03651 59.1999 5.92 58.3164 5.92 57.2266V55.2532C5.92 54.1634 5.03651 53.2799 3.94667 53.2799Z" fill="white"/>
<path d="M9.86671 53.2799H7.89338C6.80353 53.2799 5.92004 54.1634 5.92004 55.2532V57.2266C5.92004 58.3164 6.80353 59.1999 7.89338 59.1999H9.86671C10.9566 59.1999 11.84 58.3164 11.84 57.2266V55.2532C11.84 54.1634 10.9566 53.2799 9.86671 53.2799Z" fill="white"/>
<path d="M27.6267 53.2799H25.6533C24.5635 53.2799 23.68 54.1634 23.68 55.2532V57.2266C23.68 58.3164 24.5635 59.1999 25.6533 59.1999H27.6267C28.7165 59.1999 29.6 58.3164 29.6 57.2266V55.2532C29.6 54.1634 28.7165 53.2799 27.6267 53.2799Z" fill="white"/>
<path d="M33.5467 53.2799H31.5734C30.4835 53.2799 29.6 54.1634 29.6 55.2532V57.2266C29.6 58.3164 30.4835 59.1999 31.5734 59.1999H33.5467C34.6365 59.1999 35.52 58.3164 35.52 57.2266V55.2532C35.52 54.1634 34.6365 53.2799 33.5467 53.2799Z" fill="white"/>
<path d="M45.3867 53.2799H43.4133C42.3235 53.2799 41.44 54.1634 41.44 55.2532V57.2266C41.44 58.3164 42.3235 59.1999 43.4133 59.1999H45.3867C46.4765 59.1999 47.36 58.3164 47.36 57.2266V55.2532C47.36 54.1634 46.4765 53.2799 45.3867 53.2799Z" fill="white"/>
<path d="M63.1467 53.2799H61.1733C60.0835 53.2799 59.2 54.1634 59.2 55.2532V57.2266C59.2 58.3164 60.0835 59.1999 61.1733 59.1999H63.1467C64.2365 59.1999 65.12 58.3164 65.12 57.2266V55.2532C65.12 54.1634 64.2365 53.2799 63.1467 53.2799Z" fill="white"/>
<path d="M74.9866 53.2799H73.0133C71.9235 53.2799 71.04 54.1634 71.04 55.2532V57.2266C71.04 58.3164 71.9235 59.1999 73.0133 59.1999H74.9866C76.0765 59.1999 76.96 58.3164 76.96 57.2266V55.2532C76.96 54.1634 76.0765 53.2799 74.9866 53.2799Z" fill="white"/>
<path d="M92.7467 53.2799H90.7733C89.6835 53.2799 88.8 54.1634 88.8 55.2532V57.2266C88.8 58.3164 89.6835 59.1999 90.7733 59.1999H92.7467C93.8365 59.1999 94.72 58.3164 94.72 57.2266V55.2532C94.72 54.1634 93.8365 53.2799 92.7467 53.2799Z" fill="white"/>
<path d="M98.6666 53.2799H96.6933C95.6035 53.2799 94.72 54.1634 94.72 55.2532V57.2266C94.72 58.3164 95.6035 59.1999 96.6933 59.1999H98.6666C99.7565 59.1999 100.64 58.3164 100.64 57.2266V55.2532C100.64 54.1634 99.7565 53.2799 98.6666 53.2799Z" fill="white"/>
<path d="M104.587 53.2799H102.613C101.524 53.2799 100.64 54.1634 100.64 55.2532V57.2266C100.64 58.3164 101.524 59.1999 102.613 59.1999H104.587C105.677 59.1999 106.56 58.3164 106.56 57.2266V55.2532C106.56 54.1634 105.677 53.2799 104.587 53.2799Z" fill="white"/>
<path d="M116.427 53.2799H114.453C113.363 53.2799 112.48 54.1634 112.48 55.2532V57.2266C112.48 58.3164 113.363 59.1999 114.453 59.1999H116.427C117.516 59.1999 118.4 58.3164 118.4 57.2266V55.2532C118.4 54.1634 117.516 53.2799 116.427 53.2799Z" fill="white"/>
<path d="M122.347 53.2799H120.373C119.284 53.2799 118.4 54.1634 118.4 55.2532V57.2266C118.4 58.3164 119.284 59.1999 120.373 59.1999H122.347C123.437 59.1999 124.32 58.3164 124.32 57.2266V55.2532C124.32 54.1634 123.437 53.2799 122.347 53.2799Z" fill="white"/>
<path d="M146.027 53.2799H144.053C142.964 53.2799 142.08 54.1634 142.08 55.2532V57.2266C142.08 58.3164 142.964 59.1999 144.053 59.1999H146.027C147.117 59.1999 148 58.3164 148 57.2266V55.2532C148 54.1634 147.117 53.2799 146.027 53.2799Z" fill="white"/>
<path d="M9.86671 59.1998H7.89338C6.80353 59.1998 5.92004 60.0833 5.92004 61.1732V63.1465C5.92004 64.2363 6.80353 65.1198 7.89338 65.1198H9.86671C10.9566 65.1198 11.84 64.2363 11.84 63.1465V61.1732C11.84 60.0833 10.9566 59.1998 9.86671 59.1998Z" fill="white"/>
<path d="M15.7867 59.1998H13.8134C12.7235 59.1998 11.84 60.0833 11.84 61.1732V63.1465C11.84 64.2363 12.7235 65.1198 13.8134 65.1198H15.7867C16.8765 65.1198 17.76 64.2363 17.76 63.1465V61.1732C17.76 60.0833 16.8765 59.1998 15.7867 59.1998Z" fill="white"/>
<path d="M39.4667 59.1998H37.4934C36.4035 59.1998 35.52 60.0833 35.52 61.1732V63.1465C35.52 64.2363 36.4035 65.1198 37.4934 65.1198H39.4667C40.5565 65.1198 41.44 64.2363 41.44 63.1465V61.1732C41.44 60.0833 40.5565 59.1998 39.4667 59.1998Z" fill="white"/>
<path d="M74.9866 59.1998H73.0133C71.9235 59.1998 71.04 60.0833 71.04 61.1732V63.1465C71.04 64.2363 71.9235 65.1198 73.0133 65.1198H74.9866C76.0765 65.1198 76.96 64.2363 76.96 63.1465V61.1732C76.96 60.0833 76.0765 59.1998 74.9866 59.1998Z" fill="white"/>
<path d="M80.9067 59.1998H78.9334C77.8435 59.1998 76.96 60.0833 76.96 61.1732V63.1465C76.96 64.2363 77.8435 65.1198 78.9334 65.1198H80.9067C81.9965 65.1198 82.88 64.2363 82.88 63.1465V61.1732C82.88 60.0833 81.9965 59.1998 80.9067 59.1998Z" fill="white"/>
<path d="M92.7467 59.1998H90.7733C89.6835 59.1998 88.8 60.0833 88.8 61.1732V63.1465C88.8 64.2363 89.6835 65.1198 90.7733 65.1198H92.7467C93.8365 65.1198 94.72 64.2363 94.72 63.1465V61.1732C94.72 60.0833 93.8365 59.1998 92.7467 59.1998Z" fill="white"/>
<path d="M128.267 59.1998H126.293C125.203 59.1998 124.32 60.0833 124.32 61.1732V63.1465C124.32 64.2363 125.203 65.1198 126.293 65.1198H128.267C129.357 65.1198 130.24 64.2363 130.24 63.1465V61.1732C130.24 60.0833 129.357 59.1998 128.267 59.1998Z" fill="white"/>
<path d="M134.187 59.1998H132.213C131.124 59.1998 130.24 60.0833 130.24 61.1732V63.1465C130.24 64.2363 131.124 65.1198 132.213 65.1198H134.187C135.277 65.1198 136.16 64.2363 136.16 63.1465V61.1732C136.16 60.0833 135.277 59.1998 134.187 59.1998Z" fill="white"/>
<path d="M140.107 59.1998H138.133C137.044 59.1998 136.16 60.0833 136.16 61.1732V63.1465C136.16 64.2363 137.044 65.1198 138.133 65.1198H140.107C141.197 65.1198 142.08 64.2363 142.08 63.1465V61.1732C142.08 60.0833 141.197 59.1998 140.107 59.1998Z" fill="white"/>
<path d="M146.027 59.1998H144.053C142.964 59.1998 142.08 60.0833 142.08 61.1732V63.1465C142.08 64.2363 142.964 65.1198 144.053 65.1198H146.027C147.117 65.1198 148 64.2363 148 63.1465V61.1732C148 60.0833 147.117 59.1998 146.027 59.1998Z" fill="white"/>
<path d="M9.86671 65.1199H7.89338C6.80353 65.1199 5.92004 66.0034 5.92004 67.0932V69.0665C5.92004 70.1564 6.80353 71.0399 7.89338 71.0399H9.86671C10.9566 71.0399 11.84 70.1564 11.84 69.0665V67.0932C11.84 66.0034 10.9566 65.1199 9.86671 65.1199Z" fill="white"/>
<path d="M21.7067 65.1199H19.7333C18.6435 65.1199 17.76 66.0034 17.76 67.0932V69.0665C17.76 70.1564 18.6435 71.0399 19.7333 71.0399H21.7067C22.7965 71.0399 23.68 70.1564 23.68 69.0665V67.0932C23.68 66.0034 22.7965 65.1199 21.7067 65.1199Z" fill="white"/>
<path d="M27.6267 65.1199H25.6533C24.5635 65.1199 23.68 66.0034 23.68 67.0932V69.0665C23.68 70.1564 24.5635 71.0399 25.6533 71.0399H27.6267C28.7165 71.0399 29.6 70.1564 29.6 69.0665V67.0932C29.6 66.0034 28.7165 65.1199 27.6267 65.1199Z" fill="white"/>
<path d="M33.5467 65.1199H31.5734C30.4835 65.1199 29.6 66.0034 29.6 67.0932V69.0665C29.6 70.1564 30.4835 71.0399 31.5734 71.0399H33.5467C34.6365 71.0399 35.52 70.1564 35.52 69.0665V67.0932C35.52 66.0034 34.6365 65.1199 33.5467 65.1199Z" fill="white"/>
<path d="M51.3067 65.1199H49.3333C48.2435 65.1199 47.36 66.0034 47.36 67.0932V69.0665C47.36 70.1564 48.2435 71.0399 49.3333 71.0399H51.3067C52.3965 71.0399 53.28 70.1564 53.28 69.0665V67.0932C53.28 66.0034 52.3965 65.1199 51.3067 65.1199Z" fill="white"/>
<path d="M57.2267 65.1199H55.2534C54.1635 65.1199 53.28 66.0034 53.28 67.0932V69.0665C53.28 70.1564 54.1635 71.0399 55.2534 71.0399H57.2267C58.3165 71.0399 59.2 70.1564 59.2 69.0665V67.0932C59.2 66.0034 58.3165 65.1199 57.2267 65.1199Z" fill="white"/>
<path d="M63.1467 65.1199H61.1733C60.0835 65.1199 59.2 66.0034 59.2 67.0932V69.0665C59.2 70.1564 60.0835 71.0399 61.1733 71.0399H63.1467C64.2365 71.0399 65.12 70.1564 65.12 69.0665V67.0932C65.12 66.0034 64.2365 65.1199 63.1467 65.1199Z" fill="white"/>
<path d="M74.9866 65.1199H73.0133C71.9235 65.1199 71.04 66.0034 71.04 67.0932V69.0665C71.04 70.1564 71.9235 71.0399 73.0133 71.0399H74.9866C76.0765 71.0399 76.96 70.1564 76.96 69.0665V67.0932C76.96 66.0034 76.0765 65.1199 74.9866 65.1199Z" fill="white"/>
<path d="M92.7467 65.1199H90.7733C89.6835 65.1199 88.8 66.0034 88.8 67.0932V69.0665C88.8 70.1564 89.6835 71.0399 90.7733 71.0399H92.7467C93.8365 71.0399 94.72 70.1564 94.72 69.0665V67.0932C94.72 66.0034 93.8365 65.1199 92.7467 65.1199Z" fill="white"/>
<path d="M104.587 65.1199H102.613C101.524 65.1199 100.64 66.0034 100.64 67.0932V69.0665C100.64 70.1564 101.524 71.0399 102.613 71.0399H104.587C105.677 71.0399 106.56 70.1564 106.56 69.0665V67.0932C106.56 66.0034 105.677 65.1199 104.587 65.1199Z" fill="white"/>
<path d="M110.507 65.1199H108.533C107.444 65.1199 106.56 66.0034 106.56 67.0932V69.0665C106.56 70.1564 107.444 71.0399 108.533 71.0399H110.507C111.597 71.0399 112.48 70.1564 112.48 69.0665V67.0932C112.48 66.0034 111.597 65.1199 110.507 65.1199Z" fill="white"/>
<path d="M116.427 65.1199H114.453C113.363 65.1199 112.48 66.0034 112.48 67.0932V69.0665C112.48 70.1564 113.363 71.0399 114.453 71.0399H116.427C117.516 71.0399 118.4 70.1564 118.4 69.0665V67.0932C118.4 66.0034 117.516 65.1199 116.427 65.1199Z" fill="white"/>
<path d="M128.267 65.1199H126.293C125.203 65.1199 124.32 66.0034 124.32 67.0932V69.0665C124.32 70.1564 125.203 71.0399 126.293 71.0399H128.267C129.357 71.0399 130.24 70.1564 130.24 69.0665V67.0932C130.24 66.0034 129.357 65.1199 128.267 65.1199Z" fill="white"/>
<path d="M134.187 65.1199H132.213C131.124 65.1199 130.24 66.0034 130.24 67.0932V69.0665C130.24 70.1564 131.124 71.0399 132.213 71.0399H134.187C135.277 71.0399 136.16 70.1564 136.16 69.0665V67.0932C136.16 66.0034 135.277 65.1199 134.187 65.1199Z" fill="white"/>
<path d="M146.027 65.1199H144.053C142.964 65.1199 142.08 66.0034 142.08 67.0932V69.0665C142.08 70.1564 142.964 71.0399 144.053 71.0399H146.027C147.117 71.0399 148 70.1564 148 69.0665V67.0932C148 66.0034 147.117 65.1199 146.027 65.1199Z" fill="white"/>
<path d="M3.94667 71.0399H1.97333C0.883491 71.0399 0 71.9234 0 73.0132V74.9866C0 76.0764 0.883491 76.9599 1.97333 76.9599H3.94667C5.03651 76.9599 5.92 76.0764 5.92 74.9866V73.0132C5.92 71.9234 5.03651 71.0399 3.94667 71.0399Z" fill="white"/>
<path d="M9.86671 71.0399H7.89338C6.80353 71.0399 5.92004 71.9234 5.92004 73.0132V74.9866C5.92004 76.0764 6.80353 76.9599 7.89338 76.9599H9.86671C10.9566 76.9599 11.84 76.0764 11.84 74.9866V73.0132C11.84 71.9234 10.9566 71.0399 9.86671 71.0399Z" fill="white"/>
<path d="M33.5467 71.0399H31.5734C30.4835 71.0399 29.6 71.9234 29.6 73.0132V74.9866C29.6 76.0764 30.4835 76.9599 31.5734 76.9599H33.5467C34.6365 76.9599 35.52 76.0764 35.52 74.9866V73.0132C35.52 71.9234 34.6365 71.0399 33.5467 71.0399Z" fill="white"/>
<path d="M39.4667 71.0399H37.4934C36.4035 71.0399 35.52 71.9234 35.52 73.0132V74.9866C35.52 76.0764 36.4035 76.9599 37.4934 76.9599H39.4667C40.5565 76.9599 41.44 76.0764 41.44 74.9866V73.0132C41.44 71.9234 40.5565 71.0399 39.4667 71.0399Z" fill="white"/>
<path d="M45.3867 71.0399H43.4133C42.3235 71.0399 41.44 71.9234 41.44 73.0132V74.9866C41.44 76.0764 42.3235 76.9599 43.4133 76.9599H45.3867C46.4765 76.9599 47.36 76.0764 47.36 74.9866V73.0132C47.36 71.9234 46.4765 71.0399 45.3867 71.0399Z" fill="white"/>
<path d="M74.9866 71.0399H73.0133C71.9235 71.0399 71.04 71.9234 71.04 73.0132V74.9866C71.04 76.0764 71.9235 76.9599 73.0133 76.9599H74.9866C76.0765 76.9599 76.96 76.0764 76.96 74.9866V73.0132C76.96 71.9234 76.0765 71.0399 74.9866 71.0399Z" fill="white"/>
<path d="M92.7467 71.0399H90.7733C89.6835 71.0399 88.8 71.9234 88.8 73.0132V74.9866C88.8 76.0764 89.6835 76.9599 90.7733 76.9599H92.7467C93.8365 76.9599 94.72 76.0764 94.72 74.9866V73.0132C94.72 71.9234 93.8365 71.0399 92.7467 71.0399Z" fill="white"/>
<path d="M98.6666 71.0399H96.6933C95.6035 71.0399 94.72 71.9234 94.72 73.0132V74.9866C94.72 76.0764 95.6035 76.9599 96.6933 76.9599H98.6666C99.7565 76.9599 100.64 76.0764 100.64 74.9866V73.0132C100.64 71.9234 99.7565 71.0399 98.6666 71.0399Z" fill="white"/>
<path d="M110.507 71.0399H108.533C107.444 71.0399 106.56 71.9234 106.56 73.0132V74.9866C106.56 76.0764 107.444 76.9599 108.533 76.9599H110.507C111.597 76.9599 112.48 76.0764 112.48 74.9866V73.0132C112.48 71.9234 111.597 71.0399 110.507 71.0399Z" fill="white"/>
<path d="M116.427 71.0399H114.453C113.363 71.0399 112.48 71.9234 112.48 73.0132V74.9866C112.48 76.0764 113.363 76.9599 114.453 76.9599H116.427C117.516 76.9599 118.4 76.0764 118.4 74.9866V73.0132C118.4 71.9234 117.516 71.0399 116.427 71.0399Z" fill="white"/>
<path d="M122.347 71.0399H120.373C119.284 71.0399 118.4 71.9234 118.4 73.0132V74.9866C118.4 76.0764 119.284 76.9599 120.373 76.9599H122.347C123.437 76.9599 124.32 76.0764 124.32 74.9866V73.0132C124.32 71.9234 123.437 71.0399 122.347 71.0399Z" fill="white"/>
<path d="M128.267 71.0399H126.293C125.203 71.0399 124.32 71.9234 124.32 73.0132V74.9866C124.32 76.0764 125.203 76.9599 126.293 76.9599H128.267C129.357 76.9599 130.24 76.0764 130.24 74.9866V73.0132C130.24 71.9234 129.357 71.0399 128.267 71.0399Z" fill="white"/>
<path d="M140.107 71.0399H138.133C137.044 71.0399 136.16 71.9234 136.16 73.0132V74.9866C136.16 76.0764 137.044 76.9599 138.133 76.9599H140.107C141.197 76.9599 142.08 76.0764 142.08 74.9866V73.0132C142.08 71.9234 141.197 71.0399 140.107 71.0399Z" fill="white"/>
<path d="M146.027 71.0399H144.053C142.964 71.0399 142.08 71.9234 142.08 73.0132V74.9866C142.08 76.0764 142.964 76.9599 144.053 76.9599H146.027C147.117 76.9599 148 76.0764 148 74.9866V73.0132C148 71.9234 147.117 71.0399 146.027 71.0399Z" fill="white"/>
<path d="M9.86671 76.96H7.89338C6.80353 76.96 5.92004 77.8434 5.92004 78.9333V80.9066C5.92004 81.9965 6.80353 82.88 7.89338 82.88H9.86671C10.9566 82.88 11.84 81.9965 11.84 80.9066V78.9333C11.84 77.8434 10.9566 76.96 9.86671 76.96Z" fill="white"/>
<path d="M21.7067 76.96H19.7333C18.6435 76.96 17.76 77.8434 17.76 78.9333V80.9066C17.76 81.9965 18.6435 82.88 19.7333 82.88H21.7067C22.7965 82.88 23.68 81.9965 23.68 80.9066V78.9333C23.68 77.8434 22.7965 76.96 21.7067 76.96Z" fill="white"/>
<path d="M33.5467 76.96H31.5734C30.4835 76.96 29.6 77.8434 29.6 78.9333V80.9066C29.6 81.9965 30.4835 82.88 31.5734 82.88H33.5467C34.6365 82.88 35.52 81.9965 35.52 80.9066V78.9333C35.52 77.8434 34.6365 76.96 33.5467 76.96Z" fill="white"/>
<path d="M45.3867 76.96H43.4133C42.3235 76.96 41.44 77.8434 41.44 78.9333V80.9066C41.44 81.9965 42.3235 82.88 43.4133 82.88H45.3867C46.4765 82.88 47.36 81.9965 47.36 80.9066V78.9333C47.36 77.8434 46.4765 76.96 45.3867 76.96Z" fill="white"/>
<path d="M57.2267 76.96H55.2534C54.1635 76.96 53.28 77.8434 53.28 78.9333V80.9066C53.28 81.9965 54.1635 82.88 55.2534 82.88H57.2267C58.3165 82.88 59.2 81.9965 59.2 80.9066V78.9333C59.2 77.8434 58.3165 76.96 57.2267 76.96Z" fill="white"/>
<path d="M69.0667 76.96H67.0933C66.0035 76.96 65.12 77.8434 65.12 78.9333V80.9066C65.12 81.9965 66.0035 82.88 67.0933 82.88H69.0667C70.1565 82.88 71.04 81.9965 71.04 80.9066V78.9333C71.04 77.8434 70.1565 76.96 69.0667 76.96Z" fill="white"/>
<path d="M74.9866 76.96H73.0133C71.9235 76.96 71.04 77.8434 71.04 78.9333V80.9066C71.04 81.9965 71.9235 82.88 73.0133 82.88H74.9866C76.0765 82.88 76.96 81.9965 76.96 80.9066V78.9333C76.96 77.8434 76.0765 76.96 74.9866 76.96Z" fill="white"/>
<path d="M104.587 76.96H102.613C101.524 76.96 100.64 77.8434 100.64 78.9333V80.9066C100.64 81.9965 101.524 82.88 102.613 82.88H104.587C105.677 82.88 106.56 81.9965 106.56 80.9066V78.9333C106.56 77.8434 105.677 76.96 104.587 76.96Z" fill="white"/>
<path d="M116.427 76.96H114.453C113.363 76.96 112.48 77.8434 112.48 78.9333V80.9066C112.48 81.9965 113.363 82.88 114.453 82.88H116.427C117.516 82.88 118.4 81.9965 118.4 80.9066V78.9333C118.4 77.8434 117.516 76.96 116.427 76.96Z" fill="white"/>
<path d="M128.267 76.96H126.293C125.203 76.96 124.32 77.8434 124.32 78.9333V80.9066C124.32 81.9965 125.203 82.88 126.293 82.88H128.267C129.357 82.88 130.24 81.9965 130.24 80.9066V78.9333C130.24 77.8434 129.357 76.96 128.267 76.96Z" fill="white"/>
<path d="M146.027 76.96H144.053C142.964 76.96 142.08 77.8434 142.08 78.9333V80.9066C142.08 81.9965 142.964 82.88 144.053 82.88H146.027C147.117 82.88 148 81.9965 148 80.9066V78.9333C148 77.8434 147.117 76.96 146.027 76.96Z" fill="white"/>
<path d="M9.86671 82.88H7.89338C6.80353 82.88 5.92004 83.7635 5.92004 84.8533V86.8267C5.92004 87.9165 6.80353 88.8 7.89338 88.8H9.86671C10.9566 88.8 11.84 87.9165 11.84 86.8267V84.8533C11.84 83.7635 10.9566 82.88 9.86671 82.88Z" fill="white"/>
<path d="M33.5467 82.88H31.5734C30.4835 82.88 29.6 83.7635 29.6 84.8533V86.8267C29.6 87.9165 30.4835 88.8 31.5734 88.8H33.5467C34.6365 88.8 35.52 87.9165 35.52 86.8267V84.8533C35.52 83.7635 34.6365 82.88 33.5467 82.88Z" fill="white"/>
<path d="M39.4667 82.88H37.4934C36.4035 82.88 35.52 83.7635 35.52 84.8533V86.8267C35.52 87.9165 36.4035 88.8 37.4934 88.8H39.4667C40.5565 88.8 41.44 87.9165 41.44 86.8267V84.8533C41.44 83.7635 40.5565 82.88 39.4667 82.88Z" fill="white"/>
<path d="M45.3867 82.88H43.4133C42.3235 82.88 41.44 83.7635 41.44 84.8533V86.8267C41.44 87.9165 42.3235 88.8 43.4133 88.8H45.3867C46.4765 88.8 47.36 87.9165 47.36 86.8267V84.8533C47.36 83.7635 46.4765 82.88 45.3867 82.88Z" fill="white"/>
<path d="M57.2267 82.88H55.2534C54.1635 82.88 53.28 83.7635 53.28 84.8533V86.8267C53.28 87.9165 54.1635 88.8 55.2534 88.8H57.2267C58.3165 88.8 59.2 87.9165 59.2 86.8267V84.8533C59.2 83.7635 58.3165 82.88 57.2267 82.88Z" fill="white"/>
<path d="M63.1467 82.88H61.1733C60.0835 82.88 59.2 83.7635 59.2 84.8533V86.8267C59.2 87.9165 60.0835 88.8 61.1733 88.8H63.1467C64.2365 88.8 65.12 87.9165 65.12 86.8267V84.8533C65.12 83.7635 64.2365 82.88 63.1467 82.88Z" fill="white"/>
<path d="M69.0667 82.88H67.0933C66.0035 82.88 65.12 83.7635 65.12 84.8533V86.8267C65.12 87.9165 66.0035 88.8 67.0933 88.8H69.0667C70.1565 88.8 71.04 87.9165 71.04 86.8267V84.8533C71.04 83.7635 70.1565 82.88 69.0667 82.88Z" fill="white"/>
<path d="M86.8267 82.88H84.8534C83.7636 82.88 82.8801 83.7635 82.8801 84.8533V86.8267C82.8801 87.9165 83.7636 88.8 84.8534 88.8H86.8267C87.9166 88.8 88.8001 87.9165 88.8001 86.8267V84.8533C88.8001 83.7635 87.9166 82.88 86.8267 82.88Z" fill="white"/>
<path d="M98.6666 82.88H96.6933C95.6035 82.88 94.72 83.7635 94.72 84.8533V86.8267C94.72 87.9165 95.6035 88.8 96.6933 88.8H98.6666C99.7565 88.8 100.64 87.9165 100.64 86.8267V84.8533C100.64 83.7635 99.7565 82.88 98.6666 82.88Z" fill="white"/>
<path d="M104.587 82.88H102.613C101.524 82.88 100.64 83.7635 100.64 84.8533V86.8267C100.64 87.9165 101.524 88.8 102.613 88.8H104.587C105.677 88.8 106.56 87.9165 106.56 86.8267V84.8533C106.56 83.7635 105.677 82.88 104.587 82.88Z" fill="white"/>
<path d="M116.427 82.88H114.453C113.363 82.88 112.48 83.7635 112.48 84.8533V86.8267C112.48 87.9165 113.363 88.8 114.453 88.8H116.427C117.516 88.8 118.4 87.9165 118.4 86.8267V84.8533C118.4 83.7635 117.516 82.88 116.427 82.88Z" fill="white"/>
<path d="M122.347 82.88H120.373C119.284 82.88 118.4 83.7635 118.4 84.8533V86.8267C118.4 87.9165 119.284 88.8 120.373 88.8H122.347C123.437 88.8 124.32 87.9165 124.32 86.8267V84.8533C124.32 83.7635 123.437 82.88 122.347 82.88Z" fill="white"/>
<path d="M128.267 82.88H126.293C125.203 82.88 124.32 83.7635 124.32 84.8533V86.8267C124.32 87.9165 125.203 88.8 126.293 88.8H128.267C129.357 88.8 130.24 87.9165 130.24 86.8267V84.8533C130.24 83.7635 129.357 82.88 128.267 82.88Z" fill="white"/>
<path d="M140.107 82.88H138.133C137.044 82.88 136.16 83.7635 136.16 84.8533V86.8267C136.16 87.9165 137.044 88.8 138.133 88.8H140.107C141.197 88.8 142.08 87.9165 142.08 86.8267V84.8533C142.08 83.7635 141.197 82.88 140.107 82.88Z" fill="white"/>
<path d="M3.94667 88.7999H1.97333C0.883491 88.7999 0 89.6834 0 90.7733V92.7466C0 93.8364 0.883491 94.7199 1.97333 94.7199H3.94667C5.03651 94.7199 5.92 93.8364 5.92 92.7466V90.7733C5.92 89.6834 5.03651 88.7999 3.94667 88.7999Z" fill="white"/>
<path d="M21.7067 88.7999H19.7333C18.6435 88.7999 17.76 89.6834 17.76 90.7733V92.7466C17.76 93.8364 18.6435 94.7199 19.7333 94.7199H21.7067C22.7965 94.7199 23.68 93.8364 23.68 92.7466V90.7733C23.68 89.6834 22.7965 88.7999 21.7067 88.7999Z" fill="white"/>
<path d="M27.6267 88.7999H25.6533C24.5635 88.7999 23.68 89.6834 23.68 90.7733V92.7466C23.68 93.8364 24.5635 94.7199 25.6533 94.7199H27.6267C28.7165 94.7199 29.6 93.8364 29.6 92.7466V90.7733C29.6 89.6834 28.7165 88.7999 27.6267 88.7999Z" fill="white"/>
<path d="M33.5467 88.7999H31.5734C30.4835 88.7999 29.6 89.6834 29.6 90.7733V92.7466C29.6 93.8364 30.4835 94.7199 31.5734 94.7199H33.5467C34.6365 94.7199 35.52 93.8364 35.52 92.7466V90.7733C35.52 89.6834 34.6365 88.7999 33.5467 88.7999Z" fill="white"/>
<path d="M45.3867 88.7999H43.4133C42.3235 88.7999 41.44 89.6834 41.44 90.7733V92.7466C41.44 93.8364 42.3235 94.7199 43.4133 94.7199H45.3867C46.4765 94.7199 47.36 93.8364 47.36 92.7466V90.7733C47.36 89.6834 46.4765 88.7999 45.3867 88.7999Z" fill="white"/>
<path d="M51.3067 88.7999H49.3333C48.2435 88.7999 47.36 89.6834 47.36 90.7733V92.7466C47.36 93.8364 48.2435 94.7199 49.3333 94.7199H51.3067C52.3965 94.7199 53.28 93.8364 53.28 92.7466V90.7733C53.28 89.6834 52.3965 88.7999 51.3067 88.7999Z" fill="white"/>
<path d="M69.0667 88.7999H67.0933C66.0035 88.7999 65.12 89.6834 65.12 90.7733V92.7466C65.12 93.8364 66.0035 94.7199 67.0933 94.7199H69.0667C70.1565 94.7199 71.04 93.8364 71.04 92.7466V90.7733C71.04 89.6834 70.1565 88.7999 69.0667 88.7999Z" fill="white"/>
<path d="M80.9067 88.7999H78.9334C77.8435 88.7999 76.96 89.6834 76.96 90.7733V92.7466C76.96 93.8364 77.8435 94.7199 78.9334 94.7199H80.9067C81.9965 94.7199 82.88 93.8364 82.88 92.7466V90.7733C82.88 89.6834 81.9965 88.7999 80.9067 88.7999Z" fill="white"/>
<path d="M98.6666 88.7999H96.6933C95.6035 88.7999 94.72 89.6834 94.72 90.7733V92.7466C94.72 93.8364 95.6035 94.7199 96.6933 94.7199H98.6666C99.7565 94.7199 100.64 93.8364 100.64 92.7466V90.7733C100.64 89.6834 99.7565 88.7999 98.6666 88.7999Z" fill="white"/>
<path d="M140.107 88.7999H138.133C137.044 88.7999 136.16 89.6834 136.16 90.7733V92.7466C136.16 93.8364 137.044 94.7199 138.133 94.7199H140.107C141.197 94.7199 142.08 93.8364 142.08 92.7466V90.7733C142.08 89.6834 141.197 88.7999 140.107 88.7999Z" fill="white"/>
<path d="M146.027 88.7999H144.053C142.964 88.7999 142.08 89.6834 142.08 90.7733V92.7466C142.08 93.8364 142.964 94.7199 144.053 94.7199H146.027C147.117 94.7199 148 93.8364 148 92.7466V90.7733C148 89.6834 147.117 88.7999 146.027 88.7999Z" fill="white"/>
<path d="M27.6267 94.72H25.6533C24.5635 94.72 23.68 95.6035 23.68 96.6933V98.6666C23.68 99.7565 24.5635 100.64 25.6533 100.64H27.6267C28.7165 100.64 29.6 99.7565 29.6 98.6666V96.6933C29.6 95.6035 28.7165 94.72 27.6267 94.72Z" fill="white"/>
<path d="M33.5467 94.72H31.5734C30.4835 94.72 29.6 95.6035 29.6 96.6933V98.6666C29.6 99.7565 30.4835 100.64 31.5734 100.64H33.5467C34.6365 100.64 35.52 99.7565 35.52 98.6666V96.6933C35.52 95.6035 34.6365 94.72 33.5467 94.72Z" fill="white"/>
<path d="M39.4667 94.72H37.4934C36.4035 94.72 35.52 95.6035 35.52 96.6933V98.6666C35.52 99.7565 36.4035 100.64 37.4934 100.64H39.4667C40.5565 100.64 41.44 99.7565 41.44 98.6666V96.6933C41.44 95.6035 40.5565 94.72 39.4667 94.72Z" fill="white"/>
<path d="M57.2267 94.72H55.2534C54.1635 94.72 53.28 95.6035 53.28 96.6933V98.6666C53.28 99.7565 54.1635 100.64 55.2534 100.64H57.2267C58.3165 100.64 59.2 99.7565 59.2 98.6666V96.6933C59.2 95.6035 58.3165 94.72 57.2267 94.72Z" fill="white"/>
<path d="M80.9067 94.72H78.9334C77.8435 94.72 76.96 95.6035 76.96 96.6933V98.6666C76.96 99.7565 77.8435 100.64 78.9334 100.64H80.9067C81.9965 100.64 82.88 99.7565 82.88 98.6666V96.6933C82.88 95.6035 81.9965 94.72 80.9067 94.72Z" fill="white"/>
<path d="M98.6666 94.72H96.6933C95.6035 94.72 94.72 95.6035 94.72 96.6933V98.6666C94.72 99.7565 95.6035 100.64 96.6933 100.64H98.6666C99.7565 100.64 100.64 99.7565 100.64 98.6666V96.6933C100.64 95.6035 99.7565 94.72 98.6666 94.72Z" fill="white"/>
<path d="M104.587 94.72H102.613C101.524 94.72 100.64 95.6035 100.64 96.6933V98.6666C100.64 99.7565 101.524 100.64 102.613 100.64H104.587C105.677 100.64 106.56 99.7565 106.56 98.6666V96.6933C106.56 95.6035 105.677 94.72 104.587 94.72Z" fill="white"/>
<path d="M110.507 94.72H108.533C107.444 94.72 106.56 95.6035 106.56 96.6933V98.6666C106.56 99.7565 107.444 100.64 108.533 100.64H110.507C111.597 100.64 112.48 99.7565 112.48 98.6666V96.6933C112.48 95.6035 111.597 94.72 110.507 94.72Z" fill="white"/>
<path d="M116.427 94.72H114.453C113.363 94.72 112.48 95.6035 112.48 96.6933V98.6666C112.48 99.7565 113.363 100.64 114.453 100.64H116.427C117.516 100.64 118.4 99.7565 118.4 98.6666V96.6933C118.4 95.6035 117.516 94.72 116.427 94.72Z" fill="white"/>
<path d="M122.347 94.72H120.373C119.284 94.72 118.4 95.6035 118.4 96.6933V98.6666C118.4 99.7565 119.284 100.64 120.373 100.64H122.347C123.437 100.64 124.32 99.7565 124.32 98.6666V96.6933C124.32 95.6035 123.437 94.72 122.347 94.72Z" fill="white"/>
<path d="M140.107 94.72H138.133C137.044 94.72 136.16 95.6035 136.16 96.6933V98.6666C136.16 99.7565 137.044 100.64 138.133 100.64H140.107C141.197 100.64 142.08 99.7565 142.08 98.6666V96.6933C142.08 95.6035 141.197 94.72 140.107 94.72Z" fill="white"/>
<path d="M51.3067 100.64H49.3333C48.2435 100.64 47.36 101.524 47.36 102.613V104.587C47.36 105.677 48.2435 106.56 49.3333 106.56H51.3067C52.3965 106.56 53.28 105.677 53.28 104.587V102.613C53.28 101.524 52.3965 100.64 51.3067 100.64Z" fill="white"/>
<path d="M57.2267 100.64H55.2534C54.1635 100.64 53.28 101.524 53.28 102.613V104.587C53.28 105.677 54.1635 106.56 55.2534 106.56H57.2267C58.3165 106.56 59.2 105.677 59.2 104.587V102.613C59.2 101.524 58.3165 100.64 57.2267 100.64Z" fill="white"/>
<path d="M80.9067 100.64H78.9334C77.8435 100.64 76.96 101.524 76.96 102.613V104.587C76.96 105.677 77.8435 106.56 78.9334 106.56H80.9067C81.9965 106.56 82.88 105.677 82.88 104.587V102.613C82.88 101.524 81.9965 100.64 80.9067 100.64Z" fill="white"/>
<path d="M86.8267 100.64H84.8534C83.7636 100.64 82.8801 101.524 82.8801 102.613V104.587C82.8801 105.677 83.7636 106.56 84.8534 106.56H86.8267C87.9166 106.56 88.8001 105.677 88.8001 104.587V102.613C88.8001 101.524 87.9166 100.64 86.8267 100.64Z" fill="white"/>
<path d="M98.6666 100.64H96.6933C95.6035 100.64 94.72 101.524 94.72 102.613V104.587C94.72 105.677 95.6035 106.56 96.6933 106.56H98.6666C99.7565 106.56 100.64 105.677 100.64 104.587V102.613C100.64 101.524 99.7565 100.64 98.6666 100.64Z" fill="white"/>
<path d="M122.347 100.64H120.373C119.284 100.64 118.4 101.524 118.4 102.613V104.587C118.4 105.677 119.284 106.56 120.373 106.56H122.347C123.437 106.56 124.32 105.677 124.32 104.587V102.613C124.32 101.524 123.437 100.64 122.347 100.64Z" fill="white"/>
<path d="M128.267 100.64H126.293C125.203 100.64 124.32 101.524 124.32 102.613V104.587C124.32 105.677 125.203 106.56 126.293 106.56H128.267C129.357 106.56 130.24 105.677 130.24 104.587V102.613C130.24 101.524 129.357 100.64 128.267 100.64Z" fill="white"/>
<path d="M134.187 100.64H132.213C131.124 100.64 130.24 101.524 130.24 102.613V104.587C130.24 105.677 131.124 106.56 132.213 106.56H134.187C135.277 106.56 136.16 105.677 136.16 104.587V102.613C136.16 101.524 135.277 100.64 134.187 100.64Z" fill="white"/>
<path d="M51.3067 106.56H49.3333C48.2435 106.56 47.36 107.443 47.36 108.533V110.506C47.36 111.596 48.2435 112.48 49.3333 112.48H51.3067C52.3965 112.48 53.28 111.596 53.28 110.506V108.533C53.28 107.443 52.3965 106.56 51.3067 106.56Z" fill="white"/>
<path d="M74.9866 106.56H73.0133C71.9235 106.56 71.04 107.443 71.04 108.533V110.506C71.04 111.596 71.9235 112.48 73.0133 112.48H74.9866C76.0765 112.48 76.96 111.596 76.96 110.506V108.533C76.96 107.443 76.0765 106.56 74.9866 106.56Z" fill="white"/>
<path d="M80.9067 106.56H78.9334C77.8435 106.56 76.96 107.443 76.96 108.533V110.506C76.96 111.596 77.8435 112.48 78.9334 112.48H80.9067C81.9965 112.48 82.88 111.596 82.88 110.506V108.533C82.88 107.443 81.9965 106.56 80.9067 106.56Z" fill="white"/>
<path d="M92.7467 106.56H90.7733C89.6835 106.56 88.8 107.443 88.8 108.533V110.506C88.8 111.596 89.6835 112.48 90.7733 112.48H92.7467C93.8365 112.48 94.72 111.596 94.72 110.506V108.533C94.72 107.443 93.8365 106.56 92.7467 106.56Z" fill="white"/>
<path d="M98.6666 106.56H96.6933C95.6035 106.56 94.72 107.443 94.72 108.533V110.506C94.72 111.596 95.6035 112.48 96.6933 112.48H98.6666C99.7565 112.48 100.64 111.596 100.64 110.506V108.533C100.64 107.443 99.7565 106.56 98.6666 106.56Z" fill="white"/>
<path d="M110.507 106.56H108.533C107.444 106.56 106.56 107.443 106.56 108.533V110.506C106.56 111.596 107.444 112.48 108.533 112.48H110.507C111.597 112.48 112.48 111.596 112.48 110.506V108.533C112.48 107.443 111.597 106.56 110.507 106.56Z" fill="white"/>
<path d="M122.347 106.56H120.373C119.284 106.56 118.4 107.443 118.4 108.533V110.506C118.4 111.596 119.284 112.48 120.373 112.48H122.347C123.437 112.48 124.32 111.596 124.32 110.506V108.533C124.32 107.443 123.437 106.56 122.347 106.56Z" fill="white"/>
<path d="M134.187 106.56H132.213C131.124 106.56 130.24 107.443 130.24 108.533V110.506C130.24 111.596 131.124 112.48 132.213 112.48H134.187C135.277 112.48 136.16 111.596 136.16 110.506V108.533C136.16 107.443 135.277 106.56 134.187 106.56Z" fill="white"/>
<path d="M140.107 106.56H138.133C137.044 106.56 136.16 107.443 136.16 108.533V110.506C136.16 111.596 137.044 112.48 138.133 112.48H140.107C141.197 112.48 142.08 111.596 142.08 110.506V108.533C142.08 107.443 141.197 106.56 140.107 106.56Z" fill="white"/>
<path d="M146.027 106.56H144.053C142.964 106.56 142.08 107.443 142.08 108.533V110.506C142.08 111.596 142.964 112.48 144.053 112.48H146.027C147.117 112.48 148 111.596 148 110.506V108.533C148 107.443 147.117 106.56 146.027 106.56Z" fill="white"/>
<path d="M51.3067 112.48H49.3333C48.2435 112.48 47.36 113.363 47.36 114.453V116.427C47.36 117.516 48.2435 118.4 49.3333 118.4H51.3067C52.3965 118.4 53.28 117.516 53.28 116.427V114.453C53.28 113.363 52.3965 112.48 51.3067 112.48Z" fill="white"/>
<path d="M57.2267 112.48H55.2534C54.1635 112.48 53.28 113.363 53.28 114.453V116.427C53.28 117.516 54.1635 118.4 55.2534 118.4H57.2267C58.3165 118.4 59.2 117.516 59.2 116.427V114.453C59.2 113.363 58.3165 112.48 57.2267 112.48Z" fill="white"/>
<path d="M69.0667 112.48H67.0933C66.0035 112.48 65.12 113.363 65.12 114.453V116.427C65.12 117.516 66.0035 118.4 67.0933 118.4H69.0667C70.1565 118.4 71.04 117.516 71.04 116.427V114.453C71.04 113.363 70.1565 112.48 69.0667 112.48Z" fill="white"/>
<path d="M80.9067 112.48H78.9334C77.8435 112.48 76.96 113.363 76.96 114.453V116.427C76.96 117.516 77.8435 118.4 78.9334 118.4H80.9067C81.9965 118.4 82.88 117.516 82.88 116.427V114.453C82.88 113.363 81.9965 112.48 80.9067 112.48Z" fill="white"/>
<path d="M86.8267 112.48H84.8534C83.7636 112.48 82.8801 113.363 82.8801 114.453V116.427C82.8801 117.516 83.7636 118.4 84.8534 118.4H86.8267C87.9166 118.4 88.8001 117.516 88.8001 116.427V114.453C88.8001 113.363 87.9166 112.48 86.8267 112.48Z" fill="white"/>
<path d="M92.7467 112.48H90.7733C89.6835 112.48 88.8 113.363 88.8 114.453V116.427C88.8 117.516 89.6835 118.4 90.7733 118.4H92.7467C93.8365 118.4 94.72 117.516 94.72 116.427V114.453C94.72 113.363 93.8365 112.48 92.7467 112.48Z" fill="white"/>
<path d="M98.6666 112.48H96.6933C95.6035 112.48 94.72 113.363 94.72 114.453V116.427C94.72 117.516 95.6035 118.4 96.6933 118.4H98.6666C99.7565 118.4 100.64 117.516 100.64 116.427V114.453C100.64 113.363 99.7565 112.48 98.6666 112.48Z" fill="white"/>
<path d="M122.347 112.48H120.373C119.284 112.48 118.4 113.363 118.4 114.453V116.427C118.4 117.516 119.284 118.4 120.373 118.4H122.347C123.437 118.4 124.32 117.516 124.32 116.427V114.453C124.32 113.363 123.437 112.48 122.347 112.48Z" fill="white"/>
<path d="M140.107 112.48H138.133C137.044 112.48 136.16 113.363 136.16 114.453V116.427C136.16 117.516 137.044 118.4 138.133 118.4H140.107C141.197 118.4 142.08 117.516 142.08 116.427V114.453C142.08 113.363 141.197 112.48 140.107 112.48Z" fill="white"/>
<path d="M146.027 112.48H144.053C142.964 112.48 142.08 113.363 142.08 114.453V116.427C142.08 117.516 142.964 118.4 144.053 118.4H146.027C147.117 118.4 148 117.516 148 116.427V114.453C148 113.363 147.117 112.48 146.027 112.48Z" fill="white"/>
<path d="M63.1467 118.4H61.1733C60.0835 118.4 59.2 119.283 59.2 120.373V122.347C59.2 123.436 60.0835 124.32 61.1733 124.32H63.1467C64.2365 124.32 65.12 123.436 65.12 122.347V120.373C65.12 119.283 64.2365 118.4 63.1467 118.4Z" fill="white"/>
<path d="M86.8267 118.4H84.8534C83.7636 118.4 82.8801 119.283 82.8801 120.373V122.347C82.8801 123.436 83.7636 124.32 84.8534 124.32H86.8267C87.9166 124.32 88.8001 123.436 88.8001 122.347V120.373C88.8001 119.283 87.9166 118.4 86.8267 118.4Z" fill="white"/>
<path d="M98.6666 118.4H96.6933C95.6035 118.4 94.72 119.283 94.72 120.373V122.347C94.72 123.436 95.6035 124.32 96.6933 124.32H98.6666C99.7565 124.32 100.64 123.436 100.64 122.347V120.373C100.64 119.283 99.7565 118.4 98.6666 118.4Z" fill="white"/>
<path d="M104.587 118.4H102.613C101.524 118.4 100.64 119.283 100.64 120.373V122.347C100.64 123.436 101.524 124.32 102.613 124.32H104.587C105.677 124.32 106.56 123.436 106.56 122.347V120.373C106.56 119.283 105.677 118.4 104.587 118.4Z" fill="white"/>
<path d="M110.507 118.4H108.533C107.444 118.4 106.56 119.283 106.56 120.373V122.347C106.56 123.436 107.444 124.32 108.533 124.32H110.507C111.597 124.32 112.48 123.436 112.48 122.347V120.373C112.48 119.283 111.597 118.4 110.507 118.4Z" fill="white"/>
<path d="M116.427 118.4H114.453C113.363 118.4 112.48 119.283 112.48 120.373V122.347C112.48 123.436 113.363 124.32 114.453 124.32H116.427C117.516 124.32 118.4 123.436 118.4 122.347V120.373C118.4 119.283 117.516 118.4 116.427 118.4Z" fill="white"/>
<path d="M122.347 118.4H120.373C119.284 118.4 118.4 119.283 118.4 120.373V122.347C118.4 123.436 119.284 124.32 120.373 124.32H122.347C123.437 124.32 124.32 123.436 124.32 122.347V120.373C124.32 119.283 123.437 118.4 122.347 118.4Z" fill="white"/>
<path d="M134.187 118.4H132.213C131.124 118.4 130.24 119.283 130.24 120.373V122.347C130.24 123.436 131.124 124.32 132.213 124.32H134.187C135.277 124.32 136.16 123.436 136.16 122.347V120.373C136.16 119.283 135.277 118.4 134.187 118.4Z" fill="white"/>
<path d="M146.027 118.4H144.053C142.964 118.4 142.08 119.283 142.08 120.373V122.347C142.08 123.436 142.964 124.32 144.053 124.32H146.027C147.117 124.32 148 123.436 148 122.347V120.373C148 119.283 147.117 118.4 146.027 118.4Z" fill="white"/>
<path d="M51.3067 124.32H49.3333C48.2435 124.32 47.36 125.203 47.36 126.293V128.267C47.36 129.356 48.2435 130.24 49.3333 130.24H51.3067C52.3965 130.24 53.28 129.356 53.28 128.267V126.293C53.28 125.203 52.3965 124.32 51.3067 124.32Z" fill="white"/>
<path d="M69.0667 124.32H67.0933C66.0035 124.32 65.12 125.203 65.12 126.293V128.267C65.12 129.356 66.0035 130.24 67.0933 130.24H69.0667C70.1565 130.24 71.04 129.356 71.04 128.267V126.293C71.04 125.203 70.1565 124.32 69.0667 124.32Z" fill="white"/>
<path d="M74.9866 124.32H73.0133C71.9235 124.32 71.04 125.203 71.04 126.293V128.267C71.04 129.356 71.9235 130.24 73.0133 130.24H74.9866C76.0765 130.24 76.96 129.356 76.96 128.267V126.293C76.96 125.203 76.0765 124.32 74.9866 124.32Z" fill="white"/>
<path d="M98.6666 124.32H96.6933C95.6035 124.32 94.72 125.203 94.72 126.293V128.267C94.72 129.356 95.6035 130.24 96.6933 130.24H98.6666C99.7565 130.24 100.64 129.356 100.64 128.267V126.293C100.64 125.203 99.7565 124.32 98.6666 124.32Z" fill="white"/>
<path d="M104.587 124.32H102.613C101.524 124.32 100.64 125.203 100.64 126.293V128.267C100.64 129.356 101.524 130.24 102.613 130.24H104.587C105.677 130.24 106.56 129.356 106.56 128.267V126.293C106.56 125.203 105.677 124.32 104.587 124.32Z" fill="white"/>
<path d="M122.347 124.32H120.373C119.284 124.32 118.4 125.203 118.4 126.293V128.267C118.4 129.356 119.284 130.24 120.373 130.24H122.347C123.437 130.24 124.32 129.356 124.32 128.267V126.293C124.32 125.203 123.437 124.32 122.347 124.32Z" fill="white"/>
<path d="M140.107 124.32H138.133C137.044 124.32 136.16 125.203 136.16 126.293V128.267C136.16 129.356 137.044 130.24 138.133 130.24H140.107C141.197 130.24 142.08 129.356 142.08 128.267V126.293C142.08 125.203 141.197 124.32 140.107 124.32Z" fill="white"/>
<path d="M146.027 124.32H144.053C142.964 124.32 142.08 125.203 142.08 126.293V128.267C142.08 129.356 142.964 130.24 144.053 130.24H146.027C147.117 130.24 148 129.356 148 128.267V126.293C148 125.203 147.117 124.32 146.027 124.32Z" fill="white"/>
<path d="M51.3067 130.24H49.3333C48.2435 130.24 47.36 131.123 47.36 132.213V134.187C47.36 135.276 48.2435 136.16 49.3333 136.16H51.3067C52.3965 136.16 53.28 135.276 53.28 134.187V132.213C53.28 131.123 52.3965 130.24 51.3067 130.24Z" fill="white"/>
<path d="M57.2267 130.24H55.2534C54.1635 130.24 53.28 131.123 53.28 132.213V134.187C53.28 135.276 54.1635 136.16 55.2534 136.16H57.2267C58.3165 136.16 59.2 135.276 59.2 134.187V132.213C59.2 131.123 58.3165 130.24 57.2267 130.24Z" fill="white"/>
<path d="M63.1467 130.24H61.1733C60.0835 130.24 59.2 131.123 59.2 132.213V134.187C59.2 135.276 60.0835 136.16 61.1733 136.16H63.1467C64.2365 136.16 65.12 135.276 65.12 134.187V132.213C65.12 131.123 64.2365 130.24 63.1467 130.24Z" fill="white"/>
<path d="M69.0667 130.24H67.0933C66.0035 130.24 65.12 131.123 65.12 132.213V134.187C65.12 135.276 66.0035 136.16 67.0933 136.16H69.0667C70.1565 136.16 71.04 135.276 71.04 134.187V132.213C71.04 131.123 70.1565 130.24 69.0667 130.24Z" fill="white"/>
<path d="M74.9866 130.24H73.0133C71.9235 130.24 71.04 131.123 71.04 132.213V134.187C71.04 135.276 71.9235 136.16 73.0133 136.16H74.9866C76.0765 136.16 76.96 135.276 76.96 134.187V132.213C76.96 131.123 76.0765 130.24 74.9866 130.24Z" fill="white"/>
<path d="M80.9067 130.24H78.9334C77.8435 130.24 76.96 131.123 76.96 132.213V134.187C76.96 135.276 77.8435 136.16 78.9334 136.16H80.9067C81.9965 136.16 82.88 135.276 82.88 134.187V132.213C82.88 131.123 81.9965 130.24 80.9067 130.24Z" fill="white"/>
<path d="M92.7467 130.24H90.7733C89.6835 130.24 88.8 131.123 88.8 132.213V134.187C88.8 135.276 89.6835 136.16 90.7733 136.16H92.7467C93.8365 136.16 94.72 135.276 94.72 134.187V132.213C94.72 131.123 93.8365 130.24 92.7467 130.24Z" fill="white"/>
<path d="M110.507 130.24H108.533C107.444 130.24 106.56 131.123 106.56 132.213V134.187C106.56 135.276 107.444 136.16 108.533 136.16H110.507C111.597 136.16 112.48 135.276 112.48 134.187V132.213C112.48 131.123 111.597 130.24 110.507 130.24Z" fill="white"/>
<path d="M128.267 130.24H126.293C125.203 130.24 124.32 131.123 124.32 132.213V134.187C124.32 135.276 125.203 136.16 126.293 136.16H128.267C129.357 136.16 130.24 135.276 130.24 134.187V132.213C130.24 131.123 129.357 130.24 128.267 130.24Z" fill="white"/>
<path d="M134.187 130.24H132.213C131.124 130.24 130.24 131.123 130.24 132.213V134.187C130.24 135.276 131.124 136.16 132.213 136.16H134.187C135.277 136.16 136.16 135.276 136.16 134.187V132.213C136.16 131.123 135.277 130.24 134.187 130.24Z" fill="white"/>
<path d="M140.107 130.24H138.133C137.044 130.24 136.16 131.123 136.16 132.213V134.187C136.16 135.276 137.044 136.16 138.133 136.16H140.107C141.197 136.16 142.08 135.276 142.08 134.187V132.213C142.08 131.123 141.197 130.24 140.107 130.24Z" fill="white"/>
<path d="M57.2267 136.16H55.2534C54.1635 136.16 53.28 137.043 53.28 138.133V140.107C53.28 141.196 54.1635 142.08 55.2534 142.08H57.2267C58.3165 142.08 59.2 141.196 59.2 140.107V138.133C59.2 137.043 58.3165 136.16 57.2267 136.16Z" fill="white"/>
<path d="M69.0667 136.16H67.0933C66.0035 136.16 65.12 137.043 65.12 138.133V140.107C65.12 141.196 66.0035 142.08 67.0933 142.08H69.0667C70.1565 142.08 71.04 141.196 71.04 140.107V138.133C71.04 137.043 70.1565 136.16 69.0667 136.16Z" fill="white"/>
<path d="M74.9866 136.16H73.0133C71.9235 136.16 71.04 137.043 71.04 138.133V140.107C71.04 141.196 71.9235 142.08 73.0133 142.08H74.9866C76.0765 142.08 76.96 141.196 76.96 140.107V138.133C76.96 137.043 76.0765 136.16 74.9866 136.16Z" fill="white"/>
<path d="M80.9067 136.16H78.9334C77.8435 136.16 76.96 137.043 76.96 138.133V140.107C76.96 141.196 77.8435 142.08 78.9334 142.08H80.9067C81.9965 142.08 82.88 141.196 82.88 140.107V138.133C82.88 137.043 81.9965 136.16 80.9067 136.16Z" fill="white"/>
<path d="M104.587 136.16H102.613C101.524 136.16 100.64 137.043 100.64 138.133V140.107C100.64 141.196 101.524 142.08 102.613 142.08H104.587C105.677 142.08 106.56 141.196 106.56 140.107V138.133C106.56 137.043 105.677 136.16 104.587 136.16Z" fill="white"/>
<path d="M122.347 136.16H120.373C119.284 136.16 118.4 137.043 118.4 138.133V140.107C118.4 141.196 119.284 142.08 120.373 142.08H122.347C123.437 142.08 124.32 141.196 124.32 140.107V138.133C124.32 137.043 123.437 136.16 122.347 136.16Z" fill="white"/>
<path d="M134.187 136.16H132.213C131.124 136.16 130.24 137.043 130.24 138.133V140.107C130.24 141.196 131.124 142.08 132.213 142.08H134.187C135.277 142.08 136.16 141.196 136.16 140.107V138.133C136.16 137.043 135.277 136.16 134.187 136.16Z" fill="white"/>
<path d="M140.107 136.16H138.133C137.044 136.16 136.16 137.043 136.16 138.133V140.107C136.16 141.196 137.044 142.08 138.133 142.08H140.107C141.197 142.08 142.08 141.196 142.08 140.107V138.133C142.08 137.043 141.197 136.16 140.107 136.16Z" fill="white"/>
<path d="M146.027 136.16H144.053C142.964 136.16 142.08 137.043 142.08 138.133V140.107C142.08 141.196 142.964 142.08 144.053 142.08H146.027C147.117 142.08 148 141.196 148 140.107V138.133C148 137.043 147.117 136.16 146.027 136.16Z" fill="white"/>
<path d="M51.3067 142.08H49.3333C48.2435 142.08 47.36 142.963 47.36 144.053V146.027C47.36 147.116 48.2435 148 49.3333 148H51.3067C52.3965 148 53.28 147.116 53.28 146.027V144.053C53.28 142.963 52.3965 142.08 51.3067 142.08Z" fill="white"/>
<path d="M57.2267 142.08H55.2534C54.1635 142.08 53.28 142.963 53.28 144.053V146.027C53.28 147.116 54.1635 148 55.2534 148H57.2267C58.3165 148 59.2 147.116 59.2 146.027V144.053C59.2 142.963 58.3165 142.08 57.2267 142.08Z" fill="white"/>
<path d="M74.9866 142.08H73.0133C71.9235 142.08 71.04 142.963 71.04 144.053V146.027C71.04 147.116 71.9235 148 73.0133 148H74.9866C76.0765 148 76.96 147.116 76.96 146.027V144.053C76.96 142.963 76.0765 142.08 74.9866 142.08Z" fill="white"/>
<path d="M80.9067 142.08H78.9334C77.8435 142.08 76.96 142.963 76.96 144.053V146.027C76.96 147.116 77.8435 148 78.9334 148H80.9067C81.9965 148 82.88 147.116 82.88 146.027V144.053C82.88 142.963 81.9965 142.08 80.9067 142.08Z" fill="white"/>
<path d="M86.8267 142.08H84.8534C83.7636 142.08 82.8801 142.963 82.8801 144.053V146.027C82.8801 147.116 83.7636 148 84.8534 148H86.8267C87.9166 148 88.8001 147.116 88.8001 146.027V144.053C88.8001 142.963 87.9166 142.08 86.8267 142.08Z" fill="white"/>
<path d="M92.7467 142.08H90.7733C89.6835 142.08 88.8 142.963 88.8 144.053V146.027C88.8 147.116 89.6835 148 90.7733 148H92.7467C93.8365 148 94.72 147.116 94.72 146.027V144.053C94.72 142.963 93.8365 142.08 92.7467 142.08Z" fill="white"/>
<path d="M104.587 142.08H102.613C101.524 142.08 100.64 142.963 100.64 144.053V146.027C100.64 147.116 101.524 148 102.613 148H104.587C105.677 148 106.56 147.116 106.56 146.027V144.053C106.56 142.963 105.677 142.08 104.587 142.08Z" fill="white"/>
<path d="M134.187 142.08H132.213C131.124 142.08 130.24 142.963 130.24 144.053V146.027C130.24 147.116 131.124 148 132.213 148H134.187C135.277 148 136.16 147.116 136.16 146.027V144.053C136.16 142.963 135.277 142.08 134.187 142.08Z" fill="white"/>
<path d="M140.107 142.08H138.133C137.044 142.08 136.16 142.963 136.16 144.053V146.027C136.16 147.116 137.044 148 138.133 148H140.107C141.197 148 142.08 147.116 142.08 146.027V144.053C142.08 142.963 141.197 142.08 140.107 142.08Z" fill="white"/>
<path d="M146.027 142.08H144.053C142.964 142.08 142.08 142.963 142.08 144.053V146.027C142.08 147.116 142.964 148 144.053 148H146.027C147.117 148 148 147.116 148 146.027V144.053C148 142.963 147.117 142.08 146.027 142.08Z" fill="white"/>
<path fill-rule="evenodd" clip-rule="evenodd" d="M0 0H33.152C35.3501 0 37.4582 0.873198 39.0125 2.4275C40.5668 3.9818 41.44 6.08989 41.44 8.288V41.44H8.288C6.08989 41.44 3.9818 40.5668 2.4275 39.0125C0.873198 37.4582 0 35.3501 0 33.152V0ZM5.92 5.92H29.6C31.1701 5.92 32.6759 6.54371 33.7861 7.65393C34.8963 8.76414 35.52 10.2699 35.52 11.84V35.52H11.84C10.2699 35.52 8.76414 34.8963 7.65393 33.7861C6.54371 32.6759 5.92 31.1701 5.92 29.6V5.92Z" fill="white"/>
<path fill-rule="evenodd" clip-rule="evenodd" d="M106.56 0H148V33.152C148 35.3501 147.127 37.4582 145.573 39.0125C144.018 40.5668 141.91 41.44 139.712 41.44H106.56V8.288C106.56 6.08989 107.433 3.9818 108.988 2.4275C110.542 0.873198 112.65 0 114.848 0H106.56ZM112.48 5.92H142.08V29.6C142.08 31.1701 141.456 32.6759 140.346 33.7861C139.236 34.8963 137.73 35.52 136.16 35.52H112.48V11.84C112.48 10.2699 113.104 8.76414 114.214 7.65393C115.324 6.54371 116.83 5.92 118.4 5.92H112.48Z" fill="white"/>
<path d="M23.68 11.8398H17.76C14.4905 11.8398 11.84 14.4903 11.84 17.7598V23.6798C11.84 26.9494 14.4905 29.5998 17.76 29.5998H23.68C26.9496 29.5998 29.6 26.9494 29.6 23.6798V17.7598C29.6 14.4903 26.9496 11.8398 23.68 11.8398Z" fill="white"/>
<path d="M130.24 11.8398H124.32C121.05 11.8398 118.4 14.4903 118.4 17.7598V23.6798C118.4 26.9494 121.05 29.5998 124.32 29.5998H130.24C133.51 29.5998 136.16 26.9494 136.16 23.6798V17.7598C136.16 14.4903 133.51 11.8398 130.24 11.8398Z" fill="white"/>
<path fill-rule="evenodd" clip-rule="evenodd" d="M0 106.56H41.44V139.712C41.44 141.91 40.5668 144.018 39.0125 145.572C37.4582 147.127 35.3501 148 33.152 148H0V114.848C0 112.65 0.873198 110.542 2.4275 108.987C3.9818 107.433 6.08989 106.56 8.288 106.56H0ZM5.92 112.48H35.52V136.16C35.52 137.73 34.8963 139.236 33.7861 140.346C32.6759 141.456 31.1701 142.08 29.6 142.08H5.92V118.4C5.92 116.83 6.54371 115.324 7.65393 114.214C8.76414 113.104 10.2699 112.48 11.84 112.48H5.92Z" fill="white"/>
<path d="M23.68 118.4H17.76C14.4905 118.4 11.84 121.05 11.84 124.32V130.24C11.84 133.509 14.4905 136.16 17.76 136.16H23.68C26.9496 136.16 29.6 133.509 29.6 130.24V124.32C29.6 121.05 26.9496 118.4 23.68 118.4Z" fill="white"/>
</svg>
