<svg width="148" height="178" viewBox="0 0 148 178" fill="none" xmlns="http://www.w3.org/2000/svg">
<path d="M2.28536 168.402C4.89806 168.336 8.05923 168.468 10.7369 168.469L33.5648 168.521L97.4767 168.576L132.797 168.593C135.687 168.609 138.577 168.604 141.466 168.579C143.008 168.569 145.187 168.466 146.655 168.637C147.304 169.062 147.442 169.246 147.877 169.887C148.033 171.222 147.974 172.796 147.985 174.157C147.999 175.9 148.227 177.558 146.281 178.172L49.7186 178.163L18.2697 178.164C13.1462 178.167 6.65472 178.361 1.67522 178.12C-0.327098 176.851 0.100802 174.806 0.0212628 172.721C-0.0555075 170.702 -0.0474541 168.808 2.28536 168.402Z" fill="white"/>
<path d="M91.0833 14C92.6408 14.3045 93.1684 15.0479 92.2802 16.4685C91.1941 18.2057 83.1376 24.7351 82.8884 26.0101C83.1157 26.4208 82.9554 26.2923 83.3412 26.4577C84.7026 26.0888 91.8498 17.8675 94.2182 16.7062C94.5718 16.7316 94.9554 16.7723 95.2542 16.9873C95.5242 17.1817 95.6307 17.3995 95.6657 17.7272C95.89 19.8341 87.5209 26.2151 85.8791 28.4457C85.9576 28.8154 86.0135 28.8058 86.2634 29.1227C87.3595 29.0143 94.678 20.3307 96.6201 19.9678C97.9272 19.6887 98.2199 21.8414 97.5725 22.5158C94.3498 25.8746 91.001 29.3249 87.507 32.3906C85.9747 33.7353 83.6382 33.3747 81.8006 33.1212C80.2497 34.6927 78.5464 36.2946 76.9565 37.8409C81.4306 42.7827 86.4454 47.2799 90.9756 52.1571C92.6222 53.93 89.7949 56.172 88.3016 54.8851C86.6538 53.4648 85.1041 51.6982 83.5974 50.1151C80.9604 47.3496 78.2827 44.6233 75.5649 41.937C75.0977 41.4416 74.6746 41.088 74.1624 40.6457C69.4671 45.2787 65.0053 50.2082 60.217 54.7509C58.621 56.6508 55.6299 53.9132 56.938 52.4848C61.584 47.4117 66.8238 42.7654 71.6039 37.8228C70.1975 36.363 68.9378 35.3845 67.4188 33.724C66.2152 34.0597 64.9542 34.1392 63.7179 33.9571C58.061 33.0726 50.5527 26.4268 51.591 20.1308C52.188 16.511 55.4804 15.2008 58.7756 15.8753C62.5502 16.6478 66.2416 19.6693 68.3865 22.7784C70.1139 25.2826 70.5785 27.8804 70.0009 30.8315C71.1949 32.3429 72.7504 33.893 74.1695 35.1986C75.666 33.9254 77.6741 31.8037 79.11 30.3703C78.5444 28.4557 78.1377 25.8198 79.7017 24.2996C81.1857 22.8573 82.8059 21.1606 84.3837 19.8494C86.4101 18.166 88.8893 15.3245 91.0833 14Z" fill="white"/>
<path d="M71.5973 0.104911C86.2257 -1.09849 100.917 8.17812 107.028 21.3952C111.303 30.6411 111.444 40.8178 107.915 50.3124C112.775 50.514 117.761 50.0708 122.59 50.4436C124.404 50.5838 126.804 55.0644 127.762 56.5577L133.222 65.0513C136.489 70.1403 140.275 75.4138 143.384 80.4034C143.34 86.2558 144.264 92.2645 140.96 97.3663C138.861 100.609 136.86 101.994 133.431 103.573C133.244 108.446 133.379 114.257 133.369 119.192L133.361 146.562C133.388 150.467 133.387 154.373 133.359 158.278C133.354 159.591 133.48 165.963 132.995 166.608C131.473 166.974 128.128 166.855 126.416 166.854L118.339 166.869L76.2778 166.865L14.627 166.861C14.4704 161.957 14.6229 156.6 14.562 151.639C14.3657 135.648 14.7964 119.481 14.5927 103.507C9.24095 100.6 5.15879 96.3396 4.61661 89.8765C4.52298 88.758 4.4525 80.722 4.69338 80.3533C8.59558 74.3778 12.6123 68.398 16.4863 62.3752L21.2199 55.0603C21.7263 54.268 23.8112 50.5571 24.6587 50.5319C29.7031 50.3834 34.8482 50.6854 39.8904 50.4755C38.6724 46.8822 38.0454 44.7588 37.6329 40.9047C36.613 31.3801 39.5531 20.7793 45.771 13.3756C52.6881 5.13978 60.9242 1.04579 71.5973 0.104911ZM95.9926 120.552C94.6664 120.627 93.7945 121.122 93.7597 122.547C93.6873 125.509 93.7368 128.476 93.7577 131.44L93.7973 145.642L93.7925 155.258C93.7899 156.635 93.7462 158.031 93.7902 159.403C93.832 160.7 95.2947 160.909 96.3073 160.929C98.8346 160.978 101.369 160.952 103.897 160.95L118.589 160.986C120.325 160.884 120.911 160.088 120.95 158.338C121.005 155.833 120.963 153.312 120.954 150.805L120.882 136.191L120.87 127.256C120.87 126.031 121.087 122.291 120.411 121.087C120.23 120.763 118.739 120.496 118.368 120.489C110.921 120.328 103.438 120.587 95.9926 120.552ZM30.4399 120.427C28.7776 120.463 27.063 120.235 26.9696 122.353C26.8377 125.349 26.8639 128.329 26.8702 131.327C26.8407 135.808 26.8508 140.289 26.9011 144.77C26.9105 148.024 26.9021 151.278 26.8767 154.532C26.8682 156.012 26.8493 157.491 26.8619 158.973C26.8755 160.593 27.7036 160.862 29.161 160.914C31.5897 161.001 34.0418 160.954 36.4753 160.945C41.3845 160.904 46.2941 160.9 51.2033 160.934C52.6728 160.879 54.1636 160.7 54.2238 158.795C54.2784 157.059 54.2225 155.284 54.2283 153.543L54.2679 142.182L54.2296 129.2C54.2195 127.401 54.3831 122.392 53.7722 120.977C52.5336 120.151 46.1576 120.449 44.3944 120.446C39.7429 120.402 35.0914 120.396 30.4399 120.427ZM113.685 95.9729C111.714 99.722 109.411 102.304 105.224 103.63C101.442 104.793 97.3511 104.405 93.8546 102.551C91.5865 101.361 89.9706 99.9005 88.5877 97.7436C88.344 97.3638 87.6146 96.0519 87.4283 95.8093C85.6556 99.5851 83.4917 101.877 79.4732 103.348C75.6639 104.779 71.4385 104.614 67.7525 102.89C64.2837 101.26 62.3328 99.2247 60.4153 96.0018C58.5995 99.5441 55.2732 102.468 51.4805 103.684C47.6991 104.934 43.5716 104.59 40.0495 102.731C36.696 100.99 35.4951 99.1376 33.3546 96.1606C31.749 98.9553 29.797 101.409 26.8757 102.954L26.838 110.529C26.8276 111.642 26.732 113.401 26.8221 114.457L52.586 114.469L96.416 114.481C101.552 114.511 106.689 114.514 111.825 114.489C114.163 114.482 116.503 114.502 118.84 114.454C119.966 114.431 120.252 113.978 120.841 113.103C121.046 110.045 120.959 106.487 120.932 103.382C117.069 101.1 115.886 99.9322 113.685 95.9729ZM76.1182 68.252C93.5473 67.0375 106.683 51.9095 105.44 34.4826C104.196 17.0555 89.0468 3.94519 71.622 5.21706C54.2376 6.48591 41.1645 21.5925 42.4047 38.9789C43.6449 56.3652 58.7299 69.4632 76.1182 68.252Z" fill="white"/>
</svg>
